<svg height="512pt" viewBox="0 0 512 512" width="512pt" xmlns="http://www.w3.org/2000/svg">
  <path d="m421 198.199219v28.800781c0 36-11.398438 70.199219-33 99-3 3.898438-7.5 6-12 6-3.300781 0-6.300781-.902344-9-3h-222c-6.597656 5.101562-15.898438 3.597656-21-3-21.601562-28.800781-33-63-33-99v-28.5c0-3.898438.601562-8.101562.902344-12l38.398437-33.300781c50.097657-20.097657 87.898438-30 125.699219-30s75.601562 9.902343 125.699219 30l38.398437 33.300781c.300782 3.898438.902344 7.800781.902344 11.699219zm0 0" fill="#465a61"/>
  <path d="m421 198.199219v28.800781c0 36-11.398438 70.199219-33 99-3 3.898438-7.5 6-12 6-3.300781 0-6.300781-.902344-9-3h-111v-205.800781c37.800781 0 75.601562 9.902343 125.699219 30l38.398437 33.300781c.300782 3.898438.902344 7.800781.902344 11.699219zm0 0" fill="#3b4a51"/>
  <path d="m359.5 242c-7.199219 50.699219-50.699219 90-103.5 90-57.898438 0-105-47.101562-105-105v-105h90l15 15.300781zm0 0" fill="#fed2a4"/>
  <path d="m359.5 242c-7.199219 50.699219-50.699219 90-103.5 90v-194.699219zm0 0" fill="#ffbd86"/>
  <path d="m105.253906 315.621094-63.800781 31.378906c-25.574219 12.804688-41.453125 38.496094-41.453125 67.074219v52.925781c0 8.289062 6.710938 15 15 15h91c8.289062 0 15-6.710938 15-15l4.378906-144.667969c-3.703125-7.410156-12.730468-10.398437-20.125-6.710937zm0 0" fill="#697c86"/>
  <path d="m470.546875 347-63.828125-31.421875c-7.414062-3.691406-16.421875-.71875-20.128906 6.710937l4.410156 144.710938c0 8.289062 6.710938 15 15 15h91c8.289062 0 15-6.710938 15-15v-52.925781c0-28.578125-15.878906-54.269531-41.453125-67.074219zm0 0" fill="#465a61"/>
  <path d="m361 122v105c0 5.097656-.902344 10.199219-1.5 15h-43.5c-24.601562 0-46.199219-11.699219-60-30-9.300781-12.300781-15-28.199219-15-45v-45zm0 0" fill="#ff9f00"/>
  <path d="m361 122v105c0 5.097656-.902344 10.199219-1.5 15h-43.5c-24.601562 0-46.199219-11.699219-60-30v-90zm0 0" fill="#ff7816"/>
  <path d="m420.097656 186.5-8.398437-3.300781c-50.097657-20.097657-102.898438-30-155.699219-30s-105.601562 9.902343-155.699219 30l-8.398437 3.300781c2.398437-19.5 9.898437-38.101562 22.199218-53.398438l81.296876-104.003906c15-18.597656 36.902343-29.097656 60.601562-29.097656s45.601562 10.5 60.601562 29.097656l81.296876 104.003906c12.300781 15.296876 19.800781 33.898438 22.199218 53.398438zm0 0" fill="#697c86"/>
  <path d="m411.699219 183.199219c-50.097657-20.097657-102.898438-30-155.699219-30v-153.199219c23.699219 0 45.601562 10.5 60.601562 29.097656l81.296876 104.003906c12.300781 15.296876 19.800781 33.898438 22.199218 53.398438zm0 0" fill="#465a61"/>
  <path d="m376 302h-240c-24.902344 0-45 20.097656-45 45v150c0 8.398438 6.597656 15 15 15h300c8.402344 0 15-6.601562 15-15v-150c0-24.902344-20.097656-45-45-45zm0 0" fill="#deecf1"/>
  <path d="m421 347v150c0 8.398438-6.597656 15-15 15h-150v-210h120c24.902344 0 45 20.097656 45 45zm0 0" fill="#c6e2e7"/>
  <path d="m271 407c0 8.398438-6.597656 15-15 15s-15-6.601562-15-15c0-8.402344 6.597656-15 15-15s15 6.597656 15 15zm0 0" fill="#00eed0"/>
  <path d="m271 407c0 8.398438-6.597656 15-15 15v-30c8.402344 0 15 6.597656 15 15zm0 0" fill="#00ddc1"/>
</svg>